<?xml version="1.0" encoding="iso-8859-1"?>
<!-- Generator: Adobe Illustrator 19.0.0, SVG Export Plug-In . SVG Version: 6.00 Build 0)  -->
<svg version="1.1" id="Capa_1" xmlns="http://www.w3.org/2000/svg" xmlns:xlink="http://www.w3.org/1999/xlink" x="0px" y="0px"
	 viewBox="0 0 512 512" style="enable-background:new 0 0 512 512;" xml:space="preserve">
<g>
	<g>
		<path d="M221.259,232.083H93.158C41.79,232.083,0,273.872,0,325.24v139.296h254.983V341.23c0-29.903,18.655-55.514,44.93-65.856
			C283.369,249.372,254.297,232.083,221.259,232.083z"/>
	</g>
</g>
<g>
	<g>
		<path d="M157.208,47.464c-43.255,0-78.446,35.191-78.446,78.446c0,43.255,35.191,78.446,78.446,78.446
			c43.256,0,78.446-35.191,78.446-78.446S200.463,47.464,157.208,47.464z"/>
	</g>
</g>
<g>
	<g>
		<path d="M461.458,290.688H325.742c-27.869,0-50.542,22.673-50.542,50.542v123.306h39.217H512V341.23
			C512,313.362,489.327,290.688,461.458,290.688z"/>
	</g>
</g>
<g>
	<g>
		<path d="M393.6,143.125c-31.93,0-57.907,25.978-57.907,57.907c0,31.93,25.977,57.907,57.907,57.907
			c31.93,0,57.907-25.977,57.907-57.907S425.53,143.125,393.6,143.125z"/>
	</g>
</g>
<g>
</g>
<g>
</g>
<g>
</g>
<g>
</g>
<g>
</g>
<g>
</g>
<g>
</g>
<g>
</g>
<g>
</g>
<g>
</g>
<g>
</g>
<g>
</g>
<g>
</g>
<g>
</g>
<g>
</g>
</svg>
